<svg width="320" height="223" viewBox="0 0 320 223" fill="none" xmlns="http://www.w3.org/2000/svg">
<g clip-path="url(#clip0_2783_191295)">
<path d="M268.076 206.933V204.638H269.07L269.083 206.933H268.076ZM262.114 206.921H261.133L261.16 204.625L262.127 204.638L262.114 206.921ZM275.032 206.895L275.005 204.6L275.999 204.587L276.026 206.883L275.032 206.895ZM255.144 206.832L254.15 206.82L254.204 204.524L255.198 204.537L255.144 206.832ZM281.989 206.795L281.934 204.499L282.928 204.487L282.982 206.782L281.989 206.795ZM248.174 206.681L247.18 206.656L247.262 204.361L248.255 204.386L248.174 206.681ZM288.958 206.631L288.877 204.335L289.87 204.31L289.952 206.605L288.958 206.631ZM241.204 206.441L240.21 206.404L240.319 204.108L241.313 204.146L241.204 206.441ZM234.248 206.126L233.254 206.076L233.404 203.78L234.397 203.831L234.248 206.126ZM227.291 205.685L226.297 205.609L226.488 203.314L227.468 203.389L227.291 205.685ZM220.335 205.117L219.341 205.029L219.6 202.746L220.58 202.834L220.335 205.117ZM213.392 204.398L212.398 204.285L212.725 202.002L213.705 202.116L213.392 204.398ZM206.45 203.478L205.469 203.326L205.891 201.056L206.872 201.208L206.45 203.478ZM199.561 202.267L198.581 202.065L199.126 199.82L200.079 200.022L199.561 202.267ZM192.741 200.64C192.414 200.552 192.101 200.451 191.775 200.363L192.523 198.168C192.837 198.256 193.136 198.345 193.463 198.433L192.741 200.64ZM186.071 198.32C185.758 198.181 185.445 198.042 185.145 197.891L186.275 195.848C186.547 195.974 186.833 196.112 187.133 196.239L186.071 198.32ZM179.972 194.511C179.714 194.259 179.468 193.994 179.251 193.742L181.197 192.316C181.374 192.531 181.565 192.733 181.769 192.922L179.972 194.511ZM36.2181 191.295H35.2244L35.238 188.999H36.2317L36.2181 191.295ZM42.235 191.244L42.1534 188.949L43.1472 188.936L43.2016 191.232L42.235 191.244ZM29.2482 191.207L28.2545 191.181L28.3225 188.886L29.3026 188.911L29.2482 191.207ZM49.1778 191.068L49.0825 188.772L50.0762 188.735L50.1715 191.03L49.1778 191.068ZM22.2647 190.967C21.6113 190.929 21.2573 190.916 21.2573 190.916L21.4207 188.621C21.4207 188.621 21.761 188.646 22.4009 188.672L22.2647 190.967ZM56.134 190.753L55.9843 188.457L56.91 188.407L57.0597 189.554L57.1414 190.702L56.134 190.753ZM63.1039 190.273L62.8861 187.978L63.8662 187.902L64.0976 190.198L63.1039 190.273ZM70.0466 189.63L69.7607 187.347L70.7408 187.246L71.0267 189.529L70.0466 189.63ZM76.9756 188.798L76.6217 186.528L77.6019 186.401L77.9694 188.672L76.9756 188.798ZM179.809 187.965L177.331 187.852C177.345 187.511 177.386 187.183 177.426 186.843L179.891 187.146C179.85 187.423 179.822 187.688 179.809 187.965ZM83.8638 187.751L83.4146 185.493L84.3811 185.329L84.844 187.587L83.8638 187.751ZM90.7384 186.477L90.1939 184.232L91.1604 184.03L91.7186 186.275L90.7384 186.477ZM97.5314 184.901L96.8779 182.681L97.8309 182.429L98.4979 184.636L97.5314 184.901ZM104.256 182.984L103.426 180.815C103.739 180.714 104.038 180.613 104.338 180.512L105.196 182.668C104.882 182.769 104.569 182.883 104.256 182.984ZM181.742 182.454L179.605 181.294C179.782 181.016 179.958 180.739 180.149 180.461L182.232 181.71C182.055 181.962 181.892 182.214 181.742 182.454ZM110.777 180.512L109.729 178.431C110.028 178.305 110.314 178.166 110.6 178.04L111.689 180.108C111.389 180.247 111.09 180.386 110.777 180.512ZM185.812 177.611L184.029 176.022C184.26 175.795 184.505 175.568 184.75 175.354L186.493 176.981C186.261 177.195 186.044 177.409 185.812 177.611ZM117.012 177.422L115.718 175.455C115.991 175.303 116.277 175.139 116.549 174.975L117.869 176.917C117.583 177.094 117.298 177.271 117.012 177.422ZM122.824 173.702L121.3 171.885C121.558 171.696 121.803 171.52 122.062 171.331L123.628 173.121C123.355 173.311 123.097 173.512 122.824 173.702ZM190.849 173.386L189.297 171.595L190.087 171.015L191.625 172.819L190.849 173.386ZM128.147 169.376L126.405 167.736C126.636 167.522 126.868 167.32 127.085 167.093L128.855 168.695C128.624 168.934 128.379 169.149 128.147 169.376ZM132.885 164.508L130.951 163.07C131.156 162.83 131.36 162.603 131.564 162.364L133.524 163.776C133.306 164.016 133.089 164.268 132.885 164.508ZM137.023 159.198L134.94 157.95C135.117 157.697 135.294 157.445 135.471 157.193L137.567 158.416C137.39 158.681 137.213 158.946 137.023 159.198ZM140.603 153.573L138.411 152.489L138.861 151.682L141.066 152.741L140.603 153.573ZM273.344 125.714L271.752 123.948C271.997 123.759 272.255 123.557 272.5 123.368L274.107 125.121C273.862 125.311 273.603 125.512 273.344 125.714ZM278.517 121.237L276.72 119.648C276.952 119.434 277.17 119.206 277.387 118.992L279.211 120.556C278.98 120.783 278.749 121.01 278.517 121.237ZM283.091 116.243L281.117 114.855C281.308 114.616 281.512 114.376 281.703 114.137L283.704 115.499C283.5 115.738 283.295 115.991 283.091 116.243ZM287.039 110.795L284.915 109.609C285.079 109.357 285.242 109.092 285.405 108.84L287.556 109.987C287.393 110.265 287.216 110.53 287.039 110.795ZM290.347 104.993L288.087 104.035C288.223 103.757 288.36 103.48 288.496 103.202L290.755 104.136C290.619 104.438 290.483 104.716 290.347 104.993ZM292.974 98.927L290.633 98.1702C290.742 97.8801 290.837 97.6027 290.946 97.3126L293.301 98.0315C293.192 98.3342 293.083 98.6243 292.974 98.927ZM294.962 92.6463L292.552 92.104C292.634 91.8139 292.702 91.5239 292.77 91.2212L295.193 91.7257C295.112 92.0284 295.03 92.3436 294.962 92.6463ZM296.282 86.2144L293.832 85.8865C293.873 85.5838 293.927 85.2937 293.968 84.991L296.432 85.2811C296.378 85.5964 296.323 85.9117 296.282 86.2144ZM296.949 79.7067L294.472 79.5933C294.485 79.2906 294.499 78.9879 294.513 78.6978L296.99 78.7735C296.977 79.0888 296.963 79.3914 296.949 79.7067ZM294.485 73.2622C294.472 72.9595 294.458 72.6568 294.431 72.3668L296.908 72.228C296.922 72.5433 296.949 72.846 296.963 73.1613L294.485 73.2622ZM293.859 66.969C293.818 66.6663 293.764 66.3762 293.723 66.0735L296.173 65.7204C296.228 66.0231 296.269 66.3384 296.323 66.641L293.859 66.969ZM173.86 62.0378L171.532 61.2559L171.872 60.3857L174.2 61.1802L173.86 62.0378ZM292.593 60.764C292.511 60.4739 292.443 60.1839 292.362 59.8812L294.771 59.3137C294.853 59.6163 294.935 59.919 295.016 60.2217L292.593 60.764ZM176.269 56.0346L173.955 55.2149L174.309 54.3447L176.623 55.177L176.269 56.0346ZM290.674 54.7104C290.565 54.4203 290.456 54.1429 290.347 53.8528L292.675 53.0709C292.784 53.361 292.906 53.651 293.015 53.9537L290.674 54.7104ZM178.829 50.1072L176.555 49.1991L176.923 48.4298L179.237 49.2748L178.829 50.1072ZM288.087 48.8712C287.951 48.5937 287.815 48.3289 287.665 48.0641L289.884 47.0425C290.034 47.32 290.184 47.61 290.32 47.8875L288.087 48.8712ZM181.783 44.4193L179.618 43.3095C179.782 43.032 179.945 42.7672 180.122 42.4897L182.273 43.6374C182.096 43.8896 181.946 44.1544 181.783 44.4193ZM284.847 43.3221C284.684 43.0698 284.507 42.8176 284.33 42.5527L286.426 41.3168C286.603 41.5817 286.794 41.8465 286.971 42.1114L284.847 43.3221ZM185.445 39.135L183.457 37.7729C183.661 37.5207 183.865 37.2685 184.07 37.0162L186.03 38.4161C185.839 38.6557 185.635 38.8828 185.445 39.135ZM280.954 38.1639C280.75 37.9243 280.545 37.6973 280.341 37.4577L282.261 36.0073C282.479 36.2469 282.683 36.4992 282.887 36.7388L280.954 38.1639ZM189.814 34.3173L188.017 32.7283C188.249 32.5013 188.48 32.2743 188.725 32.0599L190.495 33.6742C190.264 33.8886 190.046 34.1029 189.814 34.3173ZM276.448 33.4471C276.217 33.2327 275.985 33.0183 275.754 32.8165L277.483 31.1644C277.728 31.3788 277.959 31.6058 278.204 31.8202L276.448 33.4471ZM194.797 30.042L193.218 28.2637C193.476 28.062 193.735 27.8728 194.007 27.671L195.546 29.4744C195.287 29.6636 195.042 29.8528 194.797 30.042ZM271.357 29.2601C271.098 29.0709 270.839 28.8943 270.594 28.7052L272.092 26.8764C272.364 27.0656 272.623 27.2548 272.895 27.4566L271.357 29.2601ZM200.283 26.3342L198.935 24.4046C199.221 24.2406 199.507 24.0641 199.793 23.9001L201.1 25.8549C200.827 26.0189 200.555 26.1702 200.283 26.3342ZM265.789 25.6784C265.517 25.527 265.231 25.363 264.959 25.2117L266.211 23.2317C266.497 23.3956 266.796 23.547 267.082 23.7109L265.789 25.6784ZM206.205 23.2317L205.102 21.176C205.401 21.0373 205.701 20.8985 206.014 20.7724L207.076 22.8533C206.776 22.9668 206.49 23.1056 206.205 23.2317ZM259.786 22.702C259.486 22.5759 259.2 22.4498 258.901 22.3237L259.922 20.2301C260.221 20.3562 260.534 20.4823 260.834 20.6211L259.786 22.702ZM212.453 20.7598L211.609 18.6032C211.922 18.5023 212.235 18.3888 212.562 18.2879L213.365 20.4571C213.066 20.558 212.752 20.6589 212.453 20.7598ZM253.469 20.3562C253.156 20.2553 252.857 20.1671 252.543 20.0788L253.306 17.8969C253.619 17.9978 253.946 18.0861 254.259 18.187L253.469 20.3562ZM218.974 18.9437L218.388 16.7114C218.715 16.6358 219.042 16.5601 219.368 16.4971L219.913 18.7419C219.6 18.805 219.287 18.868 218.974 18.9437ZM246.921 18.6663C246.608 18.6032 246.295 18.5401 245.968 18.4771L246.458 16.2196C246.785 16.2827 247.112 16.3457 247.452 16.4088L246.921 18.6663ZM225.658 17.7961L225.344 15.5134C225.671 15.4755 226.012 15.4377 226.352 15.3998L226.638 17.6825C226.297 17.7204 225.971 17.7582 225.658 17.7961ZM240.21 17.6447C239.883 17.6069 239.57 17.5817 239.243 17.5564L239.475 15.2737C239.815 15.299 240.142 15.3368 240.482 15.362L240.21 17.6447ZM232.437 17.3294L232.396 15.0341C232.736 15.0341 233.077 15.0215 233.404 15.0215L233.417 17.3168C233.09 17.3168 232.764 17.3294 232.437 17.3294Z" fill="#00A09A"/>
<path d="M267.232 102.167C267.164 108.322 261.733 113.265 255.089 113.202C248.446 113.139 243.11 108.107 243.178 101.94C243.246 95.7856 248.677 90.8418 255.321 90.9049C261.964 90.968 267.287 96.0126 267.232 102.167ZM262.944 102.129C262.903 106.089 259.405 109.28 255.117 109.242C250.842 109.204 247.398 105.963 247.439 101.991C247.48 98.0305 250.978 94.8398 255.266 94.8776C259.554 94.9154 262.985 98.1692 262.944 102.129Z" stroke="#00A09A" stroke-width="1.4147" stroke-miterlimit="10" stroke-linecap="round" stroke-linejoin="round"/>
<path d="M195.668 140.609L222.853 134.215" stroke="#00A09A" stroke-width="1.7684" stroke-miterlimit="10" stroke-linecap="round" stroke-linejoin="round"/>
<path d="M141.325 63.5143H127.221V103.834M173.465 63.59H149.683M198.105 63.59H181.783M128.025 81.9399H205.782M36.463 48.4434H28.091C24.8511 54.2195 23.0269 60.7902 23.0269 67.7392C23.0269 90.9321 43.324 109.736 68.3448 109.736C93.3793 109.736 113.676 90.9321 113.676 67.7392C113.676 60.9415 111.934 54.5222 108.83 48.8343H98.171M68.3584 109.723V139.954C68.3584 150.383 70.7679 162.592 85.7967 168.62C101.656 174.989 126.881 164.445 120.687 129.524M145.381 55.9095C143.775 55.9095 142.468 57.1202 142.468 58.6084V69.8958C142.468 71.384 143.775 72.5947 145.381 72.5947C146.988 72.5947 148.294 71.384 148.294 69.8958V58.6084C148.294 57.1202 146.988 55.9095 145.381 55.9095ZM177.603 55.9095C175.997 55.9095 174.69 57.1202 174.69 58.6084V69.8958C174.69 71.384 175.997 72.5947 177.603 72.5947C179.21 72.5947 180.517 71.384 180.517 69.8958V58.6084C180.517 57.1202 179.21 55.9095 177.603 55.9095ZM117.257 128.01C125.479 128.01 132.149 121.831 132.149 114.213C132.149 106.596 125.479 100.416 117.257 100.416C109.034 100.416 102.364 106.596 102.364 114.213C102.364 121.831 109.034 128.01 117.257 128.01ZM117.257 120.179C120.823 120.179 123.709 117.505 123.709 114.201C123.709 110.896 120.823 108.223 117.257 108.223C113.69 108.223 110.804 110.896 110.804 114.201C110.804 117.505 113.69 120.179 117.257 120.179ZM89.7037 63.7792H76.0225V51.1044C76.0225 50.1081 75.1513 49.3136 74.0895 49.3136H62.6273C61.5519 49.3136 60.6942 50.1207 60.6942 51.1044V63.7792H47.0131C45.9377 63.7792 45.0801 64.5863 45.0801 65.57V76.189C45.0801 77.1854 45.9513 77.9799 47.0131 77.9799H60.6942V90.6546C60.6942 91.6509 61.5655 92.4455 62.6273 92.4455H74.0895C75.1649 92.4455 76.0225 91.6383 76.0225 90.6546V77.9799H89.7037C90.7792 77.9799 91.6368 77.1727 91.6368 76.189V65.57C91.6504 64.5863 90.7792 63.7792 89.7037 63.7792Z" stroke="#00A09A" stroke-width="1.7684" stroke-linecap="round" stroke-linejoin="round"/>
<path d="M41.8948 54.0428C44.9714 54.0428 47.4762 51.7222 47.4762 48.872C47.4762 46.0217 44.9714 43.7012 41.8948 43.7012C38.8182 43.7012 36.3135 46.0217 36.3135 48.872C36.3135 51.7222 38.8046 54.0428 41.8948 54.0428Z" fill="#00A09A"/>
<path d="M95.4075 54.0428C98.4841 54.0428 100.989 51.7222 100.989 48.872C100.989 46.0217 98.4841 43.7012 95.4075 43.7012C92.3309 43.7012 89.8262 46.0217 89.8262 48.872C89.8262 51.7222 92.3309 54.0428 95.4075 54.0428Z" fill="#00A09A"/>
<path d="M275.318 86.8956L268.729 90.2504M257.403 78.0801L258.247 85.0039M267.368 80.2619L263.91 86.4542" stroke="#00A09A" stroke-width="1.7684" stroke-miterlimit="10" stroke-linecap="round" stroke-linejoin="round"/>
<path d="M139.038 95.6602H158.954M139.038 106.594H158.954M139.038 117.529H158.954M139.038 128.463H158.954M139.038 139.385H158.954M168.387 95.6602H188.249M168.387 106.594H188.249M168.387 117.529H188.249M168.387 128.463H188.249M168.387 139.385H188.249M197.302 95.6602H217.953M197.302 106.594H217.953M197.302 117.529H217.953M197.302 128.463H217.953" stroke="#00A09A" stroke-width="1.7684" stroke-linecap="round" stroke-linejoin="round"/>
<path d="M225.93 140.608C224.255 138.451 223.275 135.79 223.316 132.927C223.398 125.764 229.714 120.025 237.447 120.088C245.179 120.164 251.373 126.016 251.305 133.179C251.277 136.03 250.256 138.665 248.541 140.784M233.58 140.658C230.422 139.334 228.244 136.383 228.285 132.965C228.339 128.362 232.41 124.654 237.379 124.704C242.347 124.755 246.35 128.526 246.295 133.129C246.268 136.446 244.144 139.296 241.095 140.608" stroke="#00A09A" stroke-width="1.4147" stroke-miterlimit="10" stroke-linecap="round" stroke-linejoin="round"/>
<path d="M248.514 167.42C248.514 175.303 241.285 181.697 232.369 181.697C223.452 181.697 216.224 175.303 216.224 167.42M285.8 168.354C285.8 170.321 284.071 171.923 281.948 171.923H265.449C263.325 171.923 261.596 170.321 261.596 168.354V164.583C261.596 162.615 263.325 161.014 265.449 161.014H281.948C284.071 161.014 285.8 162.615 285.8 164.583V168.354Z" stroke="#00A09A" stroke-width="1.7684" stroke-miterlimit="10" stroke-linecap="round" stroke-linejoin="round"/>
<path d="M241.449 155.39C241.449 157.42 240.346 159.072 238.985 159.072C237.624 159.072 236.521 157.42 236.521 155.39C236.521 153.359 237.624 151.707 238.985 151.707C240.346 151.707 241.449 153.359 241.449 155.39Z" fill="#00A09A"/>
<path d="M228.217 155.39C228.217 157.42 227.114 159.072 225.753 159.072C224.392 159.072 223.289 157.42 223.289 155.39C223.289 153.359 224.392 151.707 225.753 151.707C227.114 151.707 228.217 153.359 228.217 155.39Z" fill="#00A09A"/>
<path d="M219.055 52.9696V66.7163H233.199M127.208 124.97V151.858L192.047 152.186M222.214 87.2355C235.418 87.2355 246.118 77.3228 246.118 65.0895C246.118 52.8561 235.418 42.9434 222.214 42.9434C209.009 42.9434 198.309 52.8561 198.309 65.0895C198.309 77.3228 209.009 87.2355 222.214 87.2355Z" stroke="#00A09A" stroke-width="1.7684" stroke-linecap="round" stroke-linejoin="round"/>
<path d="M250.474 127.732L266.238 124.024C268.294 123.57 269.982 124.806 269.982 126.76V140.595M282.533 172.49V188.759C282.533 190.727 280.804 192.329 278.68 192.329H196.117C193.994 192.329 192.265 190.727 192.265 188.759V144.177C192.265 142.21 193.994 140.608 196.117 140.608H278.68C280.804 140.608 282.533 142.21 282.533 144.177V161.165" stroke="#00A09A" stroke-width="1.7684" stroke-miterlimit="10" stroke-linecap="round" stroke-linejoin="round"/>
<path d="M227.985 123.14V86.7559" stroke="#00A09A" stroke-width="1.7684" stroke-linecap="round" stroke-linejoin="round"/>
</g>
<defs>
<clipPath id="clip0_2783_191295">
<rect width="276.345" height="192.959" fill="white" transform="translate(21.2573 15.0215)"/>
</clipPath>
</defs>
</svg>
